<svg xmlns="http://www.w3.org/2000/svg" xmlns:xlink="http://www.w3.org/1999/xlink" version="1.1" x="0px" y="0px" viewBox="0 0 100 100" enable-background="new 0 0 100 100" xml:space="preserve"><g><g><path fill="#000000" d="M55.309,57.541l4.138-15.082H44.637l-4.138,15.082H55.309z M70.172,34.292h15.681    c2.232,0,4.083,1.851,4.083,4.083c0,2.287-1.851,4.083-4.083,4.083H67.886l-4.138,15.082h15.735c2.232,0,4.083,1.797,4.083,4.083    c0,2.232-1.851,4.083-4.083,4.083H61.515L56.561,83.73c-0.599,2.178-2.831,3.485-5.009,2.886    c-2.178-0.599-3.485-2.831-2.886-5.009l4.356-15.898H38.267L33.312,83.73c-0.599,2.178-2.831,3.485-5.009,2.886    c-2.178-0.599-3.43-2.831-2.886-5.009l4.41-15.898H14.147c-2.287,0-4.083-1.851-4.083-4.083c0-2.287,1.797-4.083,4.083-4.083    H32.06l4.138-15.082H20.517c-2.287,0-4.083-1.797-4.083-4.083c0-2.232,1.797-4.083,4.083-4.083h17.967l4.955-18.022    c0.599-2.178,2.831-3.485,5.009-2.886c2.178,0.599,3.43,2.831,2.831,5.009l-4.356,15.898h14.755l4.955-18.022    c0.599-2.178,2.886-3.485,5.064-2.886c2.123,0.599,3.43,2.831,2.831,5.009L70.172,34.292z"></path></g></g></svg>